<?xml version="1.0" ?><svg data-name="Layer 1" id="Layer_1" viewBox="0 0 48 48" xmlns="http://www.w3.org/2000/svg"><defs><style>
      .cls-1 {
        fill: none;
        stroke: #353535;
        stroke-linecap: round;
        stroke-linejoin: round;
        stroke-width: 2px;
      }
    </style></defs><title/><g><path class="cls-1" d="M8.66667,27V24.88923a2,2,0,0,1,2-2H37.33333a2,2,0,0,1,2,2V27"/><line class="cls-1" x1="24" x2="24" y1="18.88923" y2="27"/></g><g><path class="cls-1" d="M24.09075,29.98607a3.59609,3.59609,0,0,1,3.7989,3.53092,13.91279,13.91279,0,0,1-.22372,3.60069c-.24477,1.21721-1.26083,3.424-3.57518,3.424s-3.3304-2.20679-3.57518-3.424a13.91232,13.91232,0,0,1-.22371-3.60069A3.59607,3.59607,0,0,1,24.09075,29.98607Z"/><path class="cls-1" d="M31.91,47.19612a5.73433,5.73433,0,0,0-4.279-4.86836"/><path class="cls-1" d="M20.189,42.32776a5.73436,5.73436,0,0,0-4.279,4.86836"/></g><g><path class="cls-1" d="M9.09075,30.07488a3.59609,3.59609,0,0,1,3.7989,3.53092,13.91279,13.91279,0,0,1-.22372,3.60069c-.24477,1.21721-1.26083,3.424-3.57518,3.424s-3.3304-2.20679-3.57518-3.424a13.91232,13.91232,0,0,1-.22371-3.60069A3.59607,3.59607,0,0,1,9.09075,30.07488Z"/><path class="cls-1" d="M14.61908,43.34039a5.31288,5.31288,0,0,0-1.988-.92382"/><path class="cls-1" d="M5.189,42.41657A5.73436,5.73436,0,0,0,.91,47.28493"/></g><g><path class="cls-1" d="M38.72931,30.07488a3.59608,3.59608,0,0,0-3.79889,3.53092,13.91232,13.91232,0,0,0,.22371,3.60069c.24478,1.21721,1.26083,3.424,3.57518,3.424s3.33041-2.20679,3.57518-3.424a13.91279,13.91279,0,0,0,.22372-3.60069A3.59609,3.59609,0,0,0,38.72931,30.07488Z"/><path class="cls-1" d="M33.201,43.34039a5.31293,5.31293,0,0,1,1.988-.92382"/><path class="cls-1" d="M42.63105,42.41657a5.73433,5.73433,0,0,1,4.279,4.86836"/></g><path class="cls-1" d="M24.09075,1a3.59609,3.59609,0,0,1,3.7989,3.53092,13.91269,13.91269,0,0,1-.22372,3.60068c-.24477,1.21722-1.26083,3.424-3.57518,3.424s-3.3304-2.20679-3.57518-3.424a13.91222,13.91222,0,0,1-.22371-3.60068A3.59607,3.59607,0,0,1,24.09075,1Z"/><path class="cls-1" d="M31.91,18.21005a5.73433,5.73433,0,0,0-4.279-4.86836"/><path class="cls-1" d="M20.189,13.34169a5.73436,5.73436,0,0,0-4.279,4.86836"/></svg>