<?xml version="1.0" ?><svg data-name="Layer 1" id="Layer_1" viewBox="0 0 24 24" xmlns="http://www.w3.org/2000/svg"><defs><style>.cls-1{fill:none;stroke:#000;stroke-linecap:round;stroke-linejoin:round;}</style></defs><title/><path class="cls-1" d="M14.8,11.166a1.107,1.107,0,0,1-.093-.814l0-.008a1.111,1.111,0,0,1,.484-.663l1.1-.686a4.6,4.6,0,0,0-.223-1.058c-.052-.149-.117-.288-.181-.428l-1.3-.036a1.1,1.1,0,0,1-.747-.324l-.006-.006a1.094,1.094,0,0,1-.327-.743l-.045-1.3a4.837,4.837,0,0,0-1.493-.4l-.679,1.105a1.1,1.1,0,0,1-.652.484l-.008,0a1.1,1.1,0,0,1-.809-.087L8.673,5.6a4.623,4.623,0,0,0-.369.282,4.587,4.587,0,0,0-.717.809L8.2,7.833a1.11,1.11,0,0,1,.093.815l0,.008a1.106,1.106,0,0,1-.484.662l-1.1.687a4.6,4.6,0,0,0,.223,1.058c.052.149.117.288.181.428l1.3.036a1.1,1.1,0,0,1,.747.324l.006.006a1.094,1.094,0,0,1,.327.743l.045,1.3a4.837,4.837,0,0,0,1.493.395l.679-1.105a1.1,1.1,0,0,1,.652-.484l.008,0a1.1,1.1,0,0,1,.809.087l1.147.61a4.623,4.623,0,0,0,.369-.282,4.587,4.587,0,0,0,.717-.809Z"/><path class="cls-1" d="M12.541,10.194a1.251,1.251,0,1,1,0-1.388A1.253,1.253,0,0,1,12.541,10.194Z"/><path class="cls-1" d="M5.947,22.288c2.146-6.437.5-7.494-1.05-10.939A6.769,6.769,0,0,1,10.57,1.788a7.313,7.313,0,0,1,1.307,0,7.364,7.364,0,0,1,6.546,7.42V9.77l2.092,2.895a1,1,0,0,1-.482,1.53l-1.61.559v1.5a2,2,0,0,1-2.182,1.991l-1.3-.119a1,1,0,0,0-1.063,1.232l.71,2.926"/></svg>