<?xml version="1.0" ?><svg height="42px" version="1.1" viewBox="0 0 42 42" width="42px" xmlns="http://www.w3.org/2000/svg" xmlns:xlink="http://www.w3.org/1999/xlink"><title/><desc/><g fill="none" fill-rule="evenodd" id="Page-2" stroke="none" stroke-width="1"><g fill="#000000" fill-rule="nonzero" id="idea" transform="translate(-4.000000, -4.000000)"><path d="M26,40.25 C26.4142136,40.25 26.75,40.5857864 26.75,41 C26.75,41.3796958 26.4678461,41.693491 26.1017706,41.7431534 L26,41.75 L24,41.75 C23.5857864,41.75 23.25,41.4142136 23.25,41 C23.25,40.6203042 23.5321539,40.306509 23.8982294,40.2568466 L24,40.25 L26,40.25 Z M28,38.25 C28.4142136,38.25 28.75,38.5857864 28.75,39 C28.75,39.3796958 28.4678461,39.693491 28.1017706,39.7431534 L28,39.75 L22,39.75 C21.5857864,39.75 21.25,39.4142136 21.25,39 C21.25,38.6203042 21.5321539,38.306509 21.8982294,38.2568466 L22,38.25 L28,38.25 Z M29,36.25 C29.4142136,36.25 29.75,36.5857864 29.75,37 C29.75,37.3796958 29.4678461,37.693491 29.1017706,37.7431534 L29,37.75 L21,37.75 C20.5857864,37.75 20.25,37.4142136 20.25,37 C20.25,36.6203042 20.5321539,36.306509 20.8982294,36.2568466 L21,36.25 L29,36.25 Z M25,13.25 C30.3847763,13.25 34.75,17.6152237 34.75,23 C34.75,25.2988694 33.37935,27.7840014 30.6953026,30.4849865 C30.1408517,31.0429389 29.8092968,31.781137 29.7577045,32.5612495 L29.7506179,32.7749427 L29.7501386,34.5005855 C29.7496337,35.1473908 29.2580325,35.6792493 28.6277922,35.743491 L28.5,35.75 L21.4999684,35.75 C20.8527935,35.75 20.320496,35.2581368 20.2564496,34.6278218 L20.2499884,34.5000175 L20.2499482,32.7760277 C20.2499238,31.9175677 19.9102578,31.0939851 19.305111,30.4850978 C16.6207915,27.784186 15.25,25.2990155 15.25,23 C15.25,17.6152237 19.6152237,13.25 25,13.25 Z M16.0271131,31.1345079 C16.2955986,31.4029934 16.3179724,31.824393 16.0942345,32.1183642 L16.0271131,32.1951681 L13.9057928,34.3164885 C13.6128996,34.6093817 13.1380259,34.6093817 12.8451326,34.3164885 C12.5766472,34.048003 12.5542734,33.6266034 12.7780113,33.3326322 L12.8451326,33.2558283 L14.966453,31.1345079 C15.2593462,30.8416147 15.7342199,30.8416147 16.0271131,31.1345079 Z M35.0421923,31.0673866 L35.1189962,31.1345079 L37.2403166,33.2558283 C37.5332098,33.5487215 37.5332098,34.0235952 37.2403166,34.3164885 C36.9718311,34.5849739 36.5504315,34.6073477 36.2564604,34.3836098 L36.1796564,34.3164885 L34.0583361,32.1951681 C33.7654429,31.9022749 33.7654429,31.4274012 34.0583361,31.1345079 C34.3268215,30.8660225 34.7482212,30.8436487 35.0421923,31.0673866 Z M25,14.75 C20.4436508,14.75 16.75,18.4436508 16.75,23 C16.75,24.8284698 17.9372569,26.9809022 20.3690341,29.4277106 C21.1945158,30.2582948 21.6819968,31.362219 21.7433545,32.5258121 L21.7499482,32.7759889 L21.749,34.25 L28.25,34.25 L28.250618,32.7745261 C28.2509198,31.6876021 28.623755,30.6390083 29.2986362,29.7996082 L29.4597078,29.6096918 L29.6313103,29.4276689 C32.0628539,26.9807811 33.25,24.8283608 33.25,23 C33.25,18.4436508 29.5563492,14.75 25,14.75 Z M11.5427246,21.3688965 C11.9569382,21.3688965 12.2927246,21.7046829 12.2927246,22.1188965 C12.2927246,22.4985922 12.0105707,22.8123874 11.6444952,22.8620499 L11.5427246,22.8688965 L8.54272461,22.8688965 C8.12851105,22.8688965 7.79272461,22.53311 7.79272461,22.1188965 C7.79272461,21.7392007 8.07487849,21.4254055 8.44095405,21.3757431 L8.54272461,21.3688965 L11.5427246,21.3688965 Z M41.5427246,21.3688965 C41.9569382,21.3688965 42.2927246,21.7046829 42.2927246,22.1188965 C42.2927246,22.4985922 42.0105707,22.8123874 41.6444952,22.8620499 L41.5427246,22.8688965 L38.5427246,22.8688965 C38.128511,22.8688965 37.7927246,22.53311 37.7927246,22.1188965 C37.7927246,21.7392007 38.0748785,21.4254055 38.4409541,21.3757431 L38.5427246,21.3688965 L41.5427246,21.3688965 Z M26,16.25 C29.1756373,16.25 31.75,18.8243627 31.75,22 C31.75,22.4142136 31.4142136,22.75 31,22.75 C30.5857864,22.75 30.25,22.4142136 30.25,22 C30.25,19.6527898 28.3472102,17.75 26,17.75 C25.5857864,17.75 25.25,17.4142136 25.25,17 C25.25,16.5857864 25.5857864,16.25 26,16.25 Z M13.8289889,9.85418315 L13.9057928,9.92130451 L16.0271131,12.0426249 C16.3200064,12.3355181 16.3200064,12.8103918 16.0271131,13.103285 C15.7586277,13.3717705 15.3372281,13.3941443 15.0432569,13.1704064 L14.966453,13.103285 L12.8451326,10.9819647 C12.5522394,10.6890715 12.5522394,10.2141977 12.8451326,9.92130451 C13.1136181,9.65281906 13.5350177,9.63044527 13.8289889,9.85418315 Z M37.2403166,9.92130451 C37.508802,10.18979 37.5311758,10.6111896 37.3074379,10.9051607 L37.2403166,10.9819647 L35.1189962,13.103285 C34.826103,13.3961782 34.3512293,13.3961782 34.0583361,13.103285 C33.7898506,12.8347996 33.7674768,12.4133999 33.9912147,12.1194288 L34.0583361,12.0426249 L36.1796564,9.92130451 C36.4725496,9.62841129 36.9474234,9.62841129 37.2403166,9.92130451 Z M25.0427246,5.86889648 C25.4224204,5.86889648 25.7362156,6.15105037 25.785878,6.51712593 L25.7927246,6.61889648 L25.7927246,9.61889648 C25.7927246,10.03311 25.4569382,10.3688965 25.0427246,10.3688965 C24.6630288,10.3688965 24.3492336,10.0867426 24.2995712,9.72066704 L24.2927246,9.61889648 L24.2927246,6.61889648 C24.2927246,6.20468292 24.628511,5.86889648 25.0427246,5.86889648 Z"/></g></g></svg>