<?xml version="1.0" ?><svg id="Layer_1" style="enable-background:new 0 0 48 48;" version="1.1" viewBox="0 0 48 48" xml:space="preserve" xmlns="http://www.w3.org/2000/svg" xmlns:xlink="http://www.w3.org/1999/xlink"><g><path d="M11.15,38.28c3.97,0,7.44-2.19,9.27-5.42c1.1,0.68,2.34,1.02,3.58,1.02s2.48-0.34,3.58-1.02c1.83,3.23,5.3,5.42,9.27,5.42   c5.87,0,10.65-4.78,10.65-10.65c0-4.03-2.25-7.55-5.56-9.36l-7.56-7.56h-3.35l-2.88,2.99h-8.29l-2.88-2.99h-3.35l-7.56,7.56   C2.75,20.08,0.5,23.6,0.5,27.63C0.5,33.5,5.28,38.28,11.15,38.28z M45.5,27.63c0,4.77-3.88,8.65-8.65,8.65s-8.65-3.88-8.65-8.65   s3.88-8.65,8.65-8.65S45.5,22.86,45.5,27.63z M14.45,12.71h1.67L19,15.7H29l2.88-2.99h1.67l4.31,4.31   c-0.33-0.03-0.67-0.05-1.02-0.05c-5.87,0-10.65,4.78-10.65,10.65c0,1.18,0.2,2.31,0.55,3.37c-1.66,1.16-3.84,1.16-5.5,0   c0.35-1.06,0.55-2.19,0.55-3.37c0-5.87-4.78-10.65-10.65-10.65c-0.34,0-0.68,0.02-1.02,0.05L14.45,12.71z M11.15,18.97   c4.77,0,8.65,3.88,8.65,8.65s-3.88,8.65-8.65,8.65S2.5,32.4,2.5,27.63S6.38,18.97,11.15,18.97z"/><path d="M24,23.57c2.05,0,3.73-1.67,3.73-3.73s-1.67-3.73-3.73-3.73s-3.73,1.67-3.73,3.73S21.95,23.57,24,23.57z M24,18.12   c0.95,0,1.73,0.77,1.73,1.73s-0.77,1.73-1.73,1.73s-1.73-0.77-1.73-1.73S23.05,18.12,24,18.12z"/><rect height="2" width="7.95" x="20.02" y="9.72"/></g></svg>