<?xml version="1.0" ?><svg viewBox="0 0 100 100" xmlns="http://www.w3.org/2000/svg"><g data-name="Layer 2" id="Layer_2"><path d="M29.38,29.79a8.67,8.67,0,1,0-8.66-8.67A8.67,8.67,0,0,0,29.38,29.79Zm0-14.33a5.67,5.67,0,1,1-5.66,5.66A5.67,5.67,0,0,1,29.38,15.46Z"/><path d="M73.36,13.54V7.76H55V5a1.5,1.5,0,1,0-3,0V39.57a5.5,5.5,0,0,0-2.91,1.33l-1.86,1.66V39.7c0-3.8-10.42-6.14-17.89-6.14-8.11,0-17.55,2.68-17.55,6.14V61.06c0,2.74,2.49,5,5.56,5a6.1,6.1,0,0,0,2.26-.44l.29,25.93c0,2.73,2.49,5,5.55,5a5.9,5.9,0,0,0,4.06-1.57,5.89,5.89,0,0,0,4.05,1.57c3.07,0,5.56-2.23,5.56-5V59.62a5.51,5.51,0,0,0,6.24-.73L52,53V95a1.5,1.5,0,0,0,3,0V50.29l1.37-1.22a5.47,5.47,0,0,0,.45-7.72A5.31,5.31,0,0,0,55,40V30.77H66.85v5.79H88.17v-23ZM55,45.93a2.42,2.42,0,0,1-.62.9L52,49l-8.63,7.7a2.47,2.47,0,0,1-3.49-.2l-.76-.68V48.42a1.5,1.5,0,0,0-3,0V91.51c0,1.06-1.17,2-2.56,2a2.35,2.35,0,0,1-2.55-2V63.28a1.5,1.5,0,0,0-3,0V91.51c0,1.06-1.17,2-2.56,2a2.35,2.35,0,0,1-2.55-2V48.42a1.5,1.5,0,0,0-3,0v13l-.18.35A2.67,2.67,0,0,1,17.39,63c-1.39,0-2.56-.9-2.56-2V40c1-1.07,6.83-3.4,14.55-3.4,8,0,13.92,2.32,14.89,3.38v6a1.69,1.69,0,0,0,.07.45.14.14,0,0,1,0,.06,1.92,1.92,0,0,0,.27.46l0,0,0,0a1.51,1.51,0,0,0,.43.32l0,0a1.61,1.61,0,0,0,.49.13h.13a1.56,1.56,0,0,0,.44-.07l.07,0a1.64,1.64,0,0,0,.46-.27l0,0,4.36-3.89A2.43,2.43,0,0,1,55,44ZM85.17,33.56H69.85V27.77H55v-17H70.36v5.78H85.17Z"/></g></svg>