<?xml version="1.0" ?><svg enable-background="new 0 0 512 512" id="Слой_1" version="1.1" viewBox="0 0 512 512" xml:space="preserve" xmlns="http://www.w3.org/2000/svg" xmlns:xlink="http://www.w3.org/1999/xlink"><g><path d="M368.19,219.774v-32.061c0-23.389-19.02-42.416-42.398-42.416c-16.186,0-30.277,9.125-37.418,22.5   c-18.072-18.473-47.944-11.169-57.19,10.693c-17.462-15.977-45.338-10.354-55.331,11.081c-20.848-18.586-54.16-3.766-54.16,24.282   c0,11.608,0,108.369,0,119.761c0,28.695,9.696,56.189,27.837,78.637V481c0,4.143,3.358,7.5,7.5,7.5s7.5-3.357,7.5-7.5v-53.186   c17.791,15.516,39.317,24.028,43.048,24.028c8.447,0,10.414-11.898,2.404-14.606c-41.925-14.224-73.289-55.841-73.289-103.621   v-51.682c14.291,9.183,33.327,5.821,43.616-7.954c14.295,17.777,41.355,17.415,55.162-0.778   c9.117,11.983,25.654,17.508,40.871,11.402c10.872,4.687,22.112,8.019,32.068,10.36c-19.616,11.253-31.485,28.686-31.485,51.475   c0,4.142,3.358,7.5,7.5,7.5s7.5-3.358,7.5-7.5c0-37.943,43.815-46.443,45.664-46.783c8.451-1.517,8.076-13.841-0.461-14.832   c-30.736-3.566-88.983-18.692-89.195-49.457c-0.085-11.711,28.71,0.377,44.232,0.377c13.24,0,54.222-7.467,66.389-3.873   c18.473,6.219,25.625,46.241,30.361,72.753c6.854,38.351,10.117,40.093-7.79,57.976c-14.089,11.791-32.764,36.445-40.921,54.062   c-10.2,22.044-15.974,42.243-18.17,63.568c-0.454,4.412,3.002,8.27,7.47,8.27c3.796,0,7.054-2.873,7.451-6.732   c2.021-19.626,7.38-38.312,16.861-58.805c7.181-15.507,24.89-38.882,37.154-49.042c0.428-0.355,0.6-0.564,1.5-1.453   c13.958-13.939,20.923-22.73,14.061-55.321C400.5,288.515,395.59,234.51,368.19,219.774z M171.764,254.549   c0,9.669-7.866,17.536-17.536,17.536c-9.669,0-17.536-7.866-17.536-17.536c0-10.531,0-30.95,0-40.695   c0-9.669,7.866-17.536,17.536-17.536c9.669,0,17.536,7.867,17.536,17.536V254.549z M227.58,252.089   c0,11.026-8.97,19.996-19.996,19.996h0c-11.025,0-19.996-8.97-19.996-19.996v-47.782c0-11.025,8.97-19.996,19.996-19.996   c11.025,0,19.996,8.971,19.996,19.996V252.089z M243.404,217.654v-25.338c0-18.17,21.855-26.433,34.134-14.151   c3.777,3.779,5.857,8.805,5.857,14.151v27.37C271.352,217.437,254.504,212.43,243.404,217.654z M310.615,219.071   c-4.464,0.615-8.312,1.141-12.22,1.431c0-8.022,0-24.781,0-32.789c0-15.117,12.291-27.416,27.398-27.416   c15.106,0,27.396,12.299,27.396,27.416v28.307C348.582,216.258,337.575,215.354,310.615,219.071z"/><path d="M90.288,235.574H44.044c-4.142,0-7.5,3.358-7.5,7.5c0,4.143,3.358,7.5,7.5,7.5h46.243c4.142,0,7.5-3.357,7.5-7.5   C97.788,238.932,94.43,235.574,90.288,235.574z"/><path d="M467.956,235.574h-46.243c-4.142,0-7.5,3.358-7.5,7.5c0,4.143,3.358,7.5,7.5,7.5h46.243c4.142,0,7.5-3.357,7.5-7.5   C475.456,238.932,472.098,235.574,467.956,235.574z"/><path d="M256,84.769c4.142,0,7.5-3.358,7.5-7.5V31c0-4.142-3.358-7.5-7.5-7.5s-7.5,3.358-7.5,7.5v46.27   C248.5,81.411,251.858,84.769,256,84.769z"/><path d="M403.263,166.666l40.048-23.135c3.587-2.072,4.815-6.659,2.743-10.246c-2.071-3.587-6.66-4.814-10.246-2.743   l-40.048,23.134c-3.587,2.072-4.815,6.659-2.743,10.246C395.1,167.528,399.695,168.727,403.263,166.666z"/><path d="M338.849,106.984c2.592,0,5.114-1.346,6.503-3.753l23.122-40.07c2.07-3.588,0.84-8.175-2.748-10.245   c-3.587-2.07-8.175-0.84-10.245,2.748l-23.122,40.07C329.462,100.756,333.136,106.984,338.849,106.984z"/><path d="M166.648,103.231c1.389,2.407,3.91,3.753,6.503,3.753c5.704,0,9.392-6.22,6.489-11.25l-23.122-40.07   c-2.07-3.587-6.656-4.817-10.245-2.748c-3.588,2.07-4.818,6.657-2.748,10.245L166.648,103.231z"/><path d="M116.24,153.677l-40.048-23.134c-3.587-2.072-8.174-0.844-10.246,2.743c-2.072,3.586-0.844,8.174,2.743,10.246   l40.048,23.134c3.579,2.068,8.17,0.851,10.246-2.743C121.055,160.336,119.827,155.749,116.24,153.677z"/></g></svg>