<svg width="203" height="80" viewBox="0 0 203 80" fill="none" xmlns="http://www.w3.org/2000/svg">
<g clip-path="url(#clip0_222_21987)">
<path d="M47.2977 45.836C47.2977 45.836 45.1816 49.2998 42.8134 47.2416C41.8561 46.5388 40.3949 44.079 39.5888 39.7618C39.5888 39.7618 38.3291 31.8805 34.399 31.1275C30.5193 30.4247 28.8566 32.7841 28.2015 34.3904L28.5542 35.0932C28.5542 35.0932 30.6705 31.6295 33.0386 33.6877C33.744 34.1897 34.7517 35.6956 35.5579 38.2056L28 49.852H31.2247L36.1625 40.816C36.1625 40.9164 36.2129 41.067 36.2129 41.1674C36.2129 41.1674 37.5229 49.0488 41.4026 49.8017C45.3327 50.605 46.9954 48.1953 47.6505 46.5889L47.2977 45.836Z" fill="white"/>
<path d="M59.6411 49.6521H56.4668V48.6983C55.6606 49.5016 54.1994 49.9533 53.0405 49.9533C50.4709 49.9533 48.1028 48.3469 48.1028 44.6322V36.9516H51.2771V44.5318C51.2771 46.3892 52.4863 47.2426 53.7964 47.2426C54.8545 47.2426 55.7111 46.8912 56.4668 46.1884V36.9516H59.6411V49.6521Z" fill="white"/>
<path d="M69.4141 49.3494C68.7592 49.751 67.8522 49.9518 66.9956 49.9518C63.9725 49.9518 62.9647 48.496 62.9647 45.3334V39.7613H61.302V38.5565C63.3679 37.5023 64.8795 35.6951 65.2321 33.1851H66.1391V36.8999H69.3638V39.7613H66.1391V45.5342C66.1391 46.8394 66.8445 47.1406 67.5499 47.1406C68.0537 47.1406 68.8599 46.9901 69.3638 46.5884V49.3494H69.4141Z" fill="white"/>
<path d="M84.4818 43.2734C84.4818 47.0384 81.4587 49.95 77.6797 49.95C73.9008 49.95 70.8777 47.0384 70.8777 43.2734C70.8777 39.5586 73.9512 36.5968 77.6797 36.5968C81.4587 36.5968 84.4818 39.5084 84.4818 43.2734ZM81.3076 43.2734C81.3076 41.1148 79.6951 39.408 77.6797 39.408C75.6643 39.408 74.0519 41.1148 74.0519 43.2734C74.0519 45.432 75.6643 47.1387 77.6797 47.1387C79.6951 47.1387 81.3076 45.4822 81.3076 43.2734Z" fill="white"/>
<path d="M98.0868 49.6545H94.9126V42.0744C94.9126 40.217 93.7033 39.3636 92.3933 39.3636C91.4359 39.3636 90.4283 39.715 89.6724 40.4178V49.7048H86.4478V36.954H89.6724V37.9078C90.4785 37.1046 91.9398 36.6528 93.0986 36.6528C95.6683 36.6528 98.0868 38.2592 98.0868 41.974V49.6545Z" fill="white"/>
<path d="M113.707 43.2734C113.707 47.0384 110.684 49.95 106.905 49.95C103.126 49.95 100.103 47.0384 100.103 43.2734C100.103 39.5586 103.176 36.5968 106.905 36.5968C110.684 36.5968 113.707 39.5084 113.707 43.2734ZM110.532 43.2734C110.532 41.1148 108.92 39.408 106.905 39.408C104.889 39.408 103.277 41.1148 103.277 43.2734C103.277 45.432 104.889 47.1387 106.905 47.1387C108.92 47.1387 110.532 45.4822 110.532 43.2734Z" fill="white"/>
<path d="M134.619 49.6545H131.445V42.0744C131.445 40.2672 130.437 39.3636 129.177 39.3636C128.22 39.3636 127.363 39.6648 126.507 40.3676C126.658 40.8696 126.708 41.472 126.708 42.1246V49.7048H123.534V42.0744C123.534 40.2672 122.526 39.3636 121.317 39.3636C120.36 39.3636 119.705 39.715 118.899 40.4178V49.7048H115.724V36.954H118.899V37.9078C119.705 37.1548 120.813 36.6528 121.922 36.6528C123.181 36.6528 124.492 37.205 125.449 38.2592C126.759 37.1046 128.069 36.6528 129.681 36.6528C132.352 36.6528 134.569 38.209 134.569 41.974V49.6545H134.619Z" fill="white"/>
<path d="M150.24 43.2734C150.24 47.0384 147.216 49.95 143.438 49.95C139.659 49.95 136.636 47.0384 136.636 43.2734C136.636 39.5586 139.709 36.5968 143.438 36.5968C147.216 36.5968 150.24 39.5084 150.24 43.2734ZM147.065 43.2734C147.065 41.1148 145.454 39.408 143.438 39.408C141.422 39.408 139.81 41.1148 139.81 43.2734C139.81 45.432 141.422 47.1387 143.438 47.1387C145.402 47.1387 147.065 45.4822 147.065 43.2734Z" fill="white"/>
<path d="M163.539 49.6521H160.364V48.6983C159.559 49.5016 158.098 49.9533 156.989 49.9533C154.42 49.9533 152.051 48.3469 152.051 44.6322V36.9516H155.226V44.5318C155.226 46.3892 156.435 47.2426 157.745 47.2426C158.803 47.2426 159.659 46.8912 160.415 46.1884V36.9516H163.589V49.6521H163.539Z" fill="white"/>
<path d="M175.529 46.0846C175.529 48.6448 172.91 50.0001 170.592 50.0001C168.627 50.0001 167.014 49.2974 165.755 47.7412L167.669 45.7834C168.426 46.7372 169.483 47.3396 170.592 47.3396C171.6 47.3396 172.355 46.9881 172.355 46.2351C172.355 45.4822 171.347 45.0303 169.685 44.5284C167.669 43.926 165.755 42.7211 165.755 40.5124C165.755 38.0024 168.274 36.5968 170.692 36.5968C172.657 36.5968 174.22 37.2996 175.479 38.8056L173.565 40.7132C172.859 39.8096 171.902 39.2574 170.743 39.2574C169.987 39.2574 168.929 39.659 168.929 40.4622C168.929 41.165 169.836 41.5666 171.55 42.0685C173.716 42.7211 175.529 44.0263 175.529 46.0846Z" fill="white"/>
</g>
<defs>
<clipPath id="clip0_222_21987">
<rect width="147.529" height="19" fill="white" transform="translate(28 31)"/>
</clipPath>
</defs>
</svg>
