<svg width="203" height="80" viewBox="0 0 203 80" fill="none" xmlns="http://www.w3.org/2000/svg">
<path d="M145.914 40.2204C145.914 39.9867 145.914 39.7447 145.914 39.4943C145.914 39.2273 145.889 38.9685 145.839 38.7183C145.805 38.4678 145.78 38.2175 145.764 37.9671C145.747 37.7167 145.714 37.4831 145.663 37.2661H131.718L127.487 43.9006H138.203C137.886 45.019 137.427 46.0371 136.826 46.955C136.242 47.8563 135.541 48.6407 134.723 49.3083V49.3334C133.871 50.001 132.928 50.5268 131.894 50.9107C130.876 51.2779 129.791 51.4615 128.639 51.4615C128.606 51.4615 128.572 51.4615 128.539 51.4615C128.522 51.4615 128.514 51.4615 128.514 51.4615C127.012 51.4615 125.593 51.1611 124.258 50.5602C122.922 49.9594 121.779 49.1581 120.828 48.1567C119.843 47.1052 119.067 45.9034 118.499 44.5515C117.932 43.1996 117.648 41.7559 117.648 40.2204C117.648 40.2037 117.648 40.1953 117.648 40.1953C117.648 40.1786 117.648 40.1536 117.648 40.1201C117.648 38.6013 117.932 37.1743 118.499 35.839C119.067 34.4871 119.851 33.3104 120.853 32.309C121.837 31.3075 122.998 30.5064 124.333 29.9055C125.668 29.3046 127.087 29.0042 128.589 29.0042C128.589 29.0042 128.597 29.0042 128.614 29.0042C128.631 29.0042 128.639 29.0042 128.639 29.0042C128.639 29.0042 128.648 29.0042 128.664 29.0042C128.697 29.0042 128.714 29.0042 128.714 29.0042C129.348 29.0042 129.974 29.0627 130.592 29.1795C131.226 29.2796 131.835 29.4298 132.419 29.6301L132.294 29.58C132.895 29.797 133.454 30.0473 133.972 30.3311C134.489 30.6148 134.973 30.9236 135.424 31.2574V31.2323L137.301 28.2531L139.179 25.2487C138.478 24.7647 137.727 24.3308 136.926 23.9469C136.142 23.563 135.324 23.2375 134.472 22.9705L134.347 22.9203C133.513 22.6867 132.62 22.5031 131.668 22.3696C130.717 22.2193 129.757 22.1442 128.789 22.1442C128.756 22.1442 128.731 22.1442 128.714 22.1442C128.714 22.1442 128.697 22.1442 128.664 22.1442C128.647 22.1442 128.622 22.1442 128.589 22.1442C128.572 22.1442 128.547 22.1442 128.514 22.1442C127.229 22.1442 125.977 22.261 124.758 22.4947C123.557 22.7284 122.388 23.0789 121.253 23.5462L121.404 23.4961C120.302 23.9802 119.276 24.5393 118.324 25.1736C117.373 25.8078 116.505 26.5172 115.72 27.3016C114.786 28.2864 113.993 29.2544 113.342 30.2058C112.708 31.1905 112.182 32.1503 111.765 33.0849C111.347 34.0196 111.005 34.9626 110.738 35.914C110.488 36.832 110.262 37.7416 110.062 38.6429C109.678 40.4122 109.278 42.0979 108.861 43.7001C108.443 45.3025 107.584 46.7463 106.282 48.0314C105.781 48.5488 105.23 49.0245 104.629 49.4586C104.045 49.8757 103.436 50.2262 102.802 50.5099L102.727 50.56C102.092 50.8105 101.425 51.0108 100.724 51.161C100.039 51.3112 99.3135 51.3862 98.5456 51.3862C98.5456 51.3862 98.5289 51.3862 98.4955 51.3862C98.4788 51.3862 98.4705 51.3862 98.4705 51.3862C96.9184 51.3862 95.4578 51.0858 94.0892 50.485C92.7206 49.8841 91.5188 49.0663 90.484 48.0314C89.4826 47.0467 88.6815 45.8701 88.0805 44.5014C87.4797 43.1161 87.1793 41.6472 87.1793 40.0949C87.1793 38.5928 87.4714 37.1741 88.0555 35.8389C88.6397 34.487 89.4408 33.3103 90.4589 32.3088C91.4771 31.2907 92.6704 30.4812 94.0391 29.8803C95.4077 29.2628 96.8683 28.954 98.4205 28.954C99.0714 28.954 99.7056 29.0125 100.323 29.1292C100.941 29.2294 101.55 29.3712 102.151 29.5549H102.051C102.652 29.7385 103.202 29.9721 103.703 30.2559C104.204 30.5229 104.688 30.8233 105.155 31.1572H105.105L107.008 28.1779L108.936 25.1485C108.251 24.6812 107.508 24.2556 106.707 23.8717C105.923 23.4878 105.097 23.1623 104.229 22.8953H104.129C103.294 22.6282 102.401 22.4279 101.45 22.2944C100.515 22.1609 99.5554 22.0941 98.5707 22.0941C98.554 22.0941 98.5289 22.0941 98.4955 22.0941C98.4788 22.0941 98.4621 22.0941 98.4455 22.0941C98.4455 22.0941 98.4369 22.0941 98.4204 22.0941C98.4037 22.0941 98.3954 22.0941 98.3954 22.0941C96.8431 22.0941 95.341 22.2861 93.8888 22.6699C92.4535 23.0371 91.1016 23.5546 89.833 24.2222L89.9082 24.1971C88.6563 24.8314 87.5047 25.6075 86.4532 26.5254C85.4016 27.4434 84.467 28.4532 83.6491 29.5548L83.5991 29.5799C83.2653 28.5784 82.7811 27.6688 82.1469 26.8509C81.5127 26.0164 80.7616 25.3238 79.8936 24.773H79.8686C78.9507 24.1721 77.9409 23.7048 76.8393 23.3709C75.7378 23.0204 74.586 22.8452 73.3843 22.8452C73.3342 22.8452 73.2926 22.8452 73.2591 22.8452C73.2257 22.8452 73.2007 22.8452 73.1841 22.8452H57.0859V57.5451H74.8615C74.895 57.5451 74.9282 57.5451 74.9617 57.5451C74.9951 57.5451 75.0201 57.5451 75.0368 57.5451C76.1051 57.5451 77.1232 57.4116 78.0912 57.1446C79.0592 56.8942 79.9773 56.5353 80.8452 56.068L80.77 56.0931C81.5878 55.6423 82.3223 55.1084 82.9732 54.4907C83.6408 53.8565 84.2 53.1555 84.6506 52.3876L84.7007 52.3126C85.5018 53.2306 86.3948 54.0484 87.3795 54.7662C88.3644 55.4837 89.4076 56.1097 90.5091 56.6438L90.6342 56.6688C91.7359 57.1695 92.9209 57.5618 94.1894 57.8455C95.4578 58.146 96.7764 58.2962 98.145 58.2962C98.145 58.2962 98.1536 58.2962 98.1701 58.2962C98.1868 58.2962 98.2035 58.2962 98.2202 58.2962C98.2536 58.2962 98.2787 58.2962 98.2952 58.2962C98.3119 58.2962 98.337 58.2962 98.3704 58.2962C99.9227 58.2962 101.433 58.1043 102.902 57.7203C104.371 57.3531 105.739 56.819 107.008 56.1181L106.933 56.1932C108.235 55.5089 109.411 54.6994 110.463 53.7646C111.514 52.8133 112.449 51.7618 113.267 50.6102L113.292 50.535C114.093 51.7033 115.011 52.7632 116.046 53.7147C117.097 54.6493 118.232 55.4504 119.451 56.1182L119.526 56.1682C120.794 56.8358 122.163 57.3532 123.632 57.7204C125.1 58.1043 126.628 58.2963 128.213 58.2963C128.213 58.2963 128.222 58.2963 128.238 58.2963C128.255 58.2963 128.28 58.2963 128.314 58.2963C128.33 58.2963 128.347 58.2963 128.364 58.2963C128.38 58.2963 128.389 58.2963 128.389 58.2963C129.607 58.2963 130.792 58.1712 131.944 57.9207C133.095 57.6703 134.197 57.3116 135.249 56.8441C136.317 56.3935 137.318 55.8427 138.253 55.1918C139.188 54.5242 140.047 53.7814 140.831 52.9636C141.633 52.1625 142.342 51.2779 142.96 50.3098C143.577 49.3584 144.103 48.3486 144.537 47.2804C144.971 46.2123 145.305 45.0939 145.538 43.9256C145.789 42.774 145.914 41.5722 145.914 40.3204C145.914 40.3037 145.914 40.287 145.914 40.2703C145.914 40.2537 145.914 40.237 145.914 40.2203L145.914 40.2204ZM64.5718 36.9406V29.2546H73.1091C73.1258 29.2546 73.1342 29.2546 73.1342 29.2546C73.6683 29.2546 74.1607 29.3547 74.6113 29.555C75.062 29.7386 75.4708 30.0056 75.8381 30.3562H75.813C76.1635 30.7067 76.4307 31.1072 76.6143 31.5579C76.8144 32.0085 76.9147 32.4926 76.9147 33.01C76.9147 33.01 76.9147 33.0186 76.9147 33.035C76.9147 33.0517 76.9147 33.0601 76.9147 33.0601C76.9147 33.0935 76.9147 33.1102 76.9147 33.1102C76.9147 33.1102 76.9147 33.1269 76.9147 33.1603C76.9147 33.6611 76.8144 34.1451 76.6143 34.6124C76.4307 35.0631 76.1719 35.4636 75.8381 35.8142H75.813C75.4625 36.1646 75.062 36.4401 74.6113 36.6403C74.1607 36.8406 73.6683 36.9408 73.1342 36.9408C73.1342 36.9408 73.1256 36.9408 73.1091 36.9408L64.5718 36.9406ZM64.5718 51.1361V43.2497H74.7614C74.7781 43.2497 74.7865 43.2497 74.7865 43.2497C75.3373 43.2497 75.8547 43.3498 76.3387 43.5501C76.8394 43.7504 77.2818 44.0175 77.6656 44.3514C78.0328 44.7017 78.325 45.119 78.5419 45.6031C78.7589 46.0871 78.8673 46.5961 78.8673 47.1302C78.8673 47.1302 78.8673 47.1388 78.8673 47.1553C78.8673 47.7228 78.7589 48.2486 78.5419 48.7326C78.325 49.2166 78.0245 49.6423 77.6407 50.0094C77.2735 50.3766 76.8394 50.6604 76.3387 50.8606C75.8547 51.0609 75.329 51.1611 74.7614 51.1611H64.5718V51.1361Z" fill="white"/>
</svg>
