<svg width="203" height="80" viewBox="0 0 203 80" fill="none" xmlns="http://www.w3.org/2000/svg">
<g clip-path="url(#clip0_222_21984)">
<path d="M55.4853 39.5358H41.1617C41.1617 35.5968 44.3846 32.374 48.3235 32.374C52.2625 32.374 55.4853 35.5968 55.4853 39.5358Z" fill="white"/>
<path d="M48.3236 25.2122C40.4098 25.2122 34 31.622 34 39.5358C34 47.4496 40.4098 53.8594 48.3236 53.8594C56.2374 53.8594 62.6472 47.4496 62.6472 39.5358C62.6472 31.622 56.2374 25.2122 48.3236 25.2122ZM48.3236 50.2785C42.4151 50.2785 37.5809 45.4443 37.5809 39.5358C37.5809 33.6273 42.4151 28.7931 48.3236 28.7931C54.2321 28.7931 59.0663 33.6273 59.0663 39.5358C59.0663 45.4443 54.2321 50.2785 48.3236 50.2785Z" fill="white"/>
<path d="M76.183 35.6326H79.9787V39.1777H76.183V50.2427H71.8859V39.1777H69.809V35.6326H71.8859V34.9881C71.8859 33.0186 72.423 31.4788 73.4973 30.4045C74.5716 29.3302 76.0397 28.7931 77.9018 28.7931C78.9045 28.7931 79.6922 28.9363 80.301 29.2586V32.9469C79.8355 32.6963 79.2625 32.553 78.6538 32.553C77.9734 32.553 77.3647 32.7321 76.8991 33.126C76.4336 33.4841 76.183 34.1286 76.183 35.0239V35.6326Z" fill="white"/>
<path d="M95.3766 46.7692C94.7678 47.9867 93.8726 48.9178 92.7267 49.5982C91.5808 50.2785 90.1843 50.6366 88.6087 50.6366C87.4628 50.6366 86.4243 50.4576 85.4575 50.0637C84.5265 49.7056 83.7029 49.1684 83.0225 48.4881C82.3421 47.8077 81.805 46.9841 81.4111 46.0531C81.0172 45.122 80.8381 44.0836 80.8381 42.9377C80.8381 41.7918 81.0172 40.8249 81.4111 39.8581C81.805 38.9271 82.3421 38.1035 83.0225 37.4231C83.7029 36.7427 84.4907 36.2056 85.4217 35.8117C86.3527 35.4178 87.3554 35.2387 88.4296 35.2387C89.5039 35.2387 90.5424 35.4178 91.4734 35.8117C92.4044 36.2056 93.1922 36.7427 93.8368 37.4231C94.4814 38.1035 94.9827 38.9271 95.3766 39.8939C95.7347 40.8608 95.9137 41.8992 95.9137 43.0451C95.9137 43.2958 95.9137 43.5106 95.9137 43.6897C95.9137 43.8687 95.9137 44.0119 95.8779 44.1194H85.1352C85.171 44.5491 85.2785 44.943 85.4933 45.3011C85.7082 45.6592 85.9588 45.9814 86.2811 46.2321C86.6034 46.4828 86.9615 46.6976 87.3912 46.8409C87.7851 46.9841 88.2148 47.0557 88.6803 47.0557C89.5039 47.0557 90.1485 46.9125 90.614 46.5902C91.0795 46.2679 91.5092 45.8382 91.8315 45.3011L95.484 46.7692H95.3766ZM91.6525 41.3263C91.545 40.5385 91.2228 39.8939 90.614 39.3926C90.0052 38.8913 89.2891 38.6406 88.3938 38.6406C87.9641 38.6406 87.5702 38.7122 87.1763 38.8554C86.8182 38.9987 86.4601 39.2135 86.1737 39.4642C85.8872 39.7149 85.6365 40.0013 85.4575 40.3236C85.2785 40.6459 85.171 40.9682 85.0994 41.3263H91.6525V41.3263Z" fill="white"/>
<path d="M111.849 50.2785L108.805 41.3263L105.761 50.2785H102.144L96.9879 35.6326H101.392L104.221 44.4775L107.229 35.6326H110.416L113.424 44.4775L116.325 35.6326H120.622L115.43 50.2785H111.849V50.2785Z" fill="white"/>
<path d="M121.732 42.9377C121.732 41.8276 121.911 40.8249 122.305 39.8581C122.699 38.9271 123.236 38.1035 123.916 37.4231C124.597 36.7427 125.42 36.2056 126.387 35.8117C127.354 35.4178 128.392 35.2387 129.538 35.2387C130.183 35.2387 130.792 35.3104 131.436 35.4536C132.081 35.5968 132.654 35.8475 133.191 36.134V40.1804C132.188 39.4642 131.114 39.1061 130.004 39.1061C129.431 39.1061 128.894 39.2135 128.428 39.3926C127.963 39.5716 127.533 39.8581 127.175 40.1804C126.817 40.5027 126.53 40.9324 126.351 41.3979C126.136 41.8634 126.065 42.3647 126.065 42.9377C126.065 43.5106 126.172 44.0119 126.351 44.4775C126.53 44.943 126.817 45.3369 127.175 45.695C127.533 46.0173 127.963 46.3037 128.428 46.4828C128.894 46.6618 129.431 46.7692 130.004 46.7692C130.577 46.7692 131.15 46.6618 131.687 46.447C132.224 46.2321 132.761 45.9814 133.191 45.6234V49.7056C132.582 50.0279 131.973 50.2785 131.329 50.4218C130.684 50.565 130.04 50.6366 129.431 50.6366C128.321 50.6366 127.282 50.4576 126.315 50.0637C125.384 49.7056 124.561 49.1684 123.845 48.4881C123.164 47.8077 122.627 47.0199 122.233 46.0531C121.839 45.0862 121.66 44.0478 121.66 42.9019L121.732 42.9377Z" fill="white"/>
<path d="M140.603 50.2785H136.27V29.5451H140.603V37.4947C141.069 36.7785 141.642 36.2414 142.358 35.8475C143.074 35.4536 143.934 35.2387 144.936 35.2387C146.619 35.2387 147.944 35.7759 148.875 36.8501C149.806 37.9244 150.308 39.3926 150.308 41.2188V50.2427H145.975V42.1857C145.975 41.2547 145.76 40.5027 145.294 39.9655C144.829 39.4284 144.184 39.1777 143.361 39.1777C142.537 39.1777 141.821 39.4642 141.319 40.073C140.818 40.6817 140.567 41.4695 140.567 42.4722V50.2427L140.603 50.2785Z" fill="white"/>
<path d="M169 35.6326V50.2785H164.774V48.309C164.273 49.061 163.593 49.6339 162.733 50.0278C161.91 50.4217 160.979 50.6366 160.012 50.6366C159.045 50.6366 158.114 50.4217 157.254 50.0278C156.431 49.6339 155.679 49.0968 155.07 48.4164C154.461 47.736 153.96 46.9124 153.602 45.9814C153.244 45.0504 153.065 44.0477 153.065 42.9376C153.065 41.8276 153.244 40.8607 153.602 39.9297C153.96 38.9986 154.461 38.175 155.07 37.4947C155.679 36.8143 156.431 36.2772 157.254 35.8833C158.078 35.4894 159.009 35.2745 160.012 35.2745C161.014 35.2745 161.874 35.4536 162.733 35.8475C163.557 36.2055 164.237 36.7785 164.774 37.5305V35.6326H169ZM157.398 42.9376C157.398 43.4748 157.505 43.9761 157.684 44.4058C157.899 44.8713 158.15 45.2652 158.472 45.5875C158.794 45.9098 159.188 46.1963 159.654 46.4111C160.119 46.626 160.585 46.6976 161.122 46.6976C161.659 46.6976 162.16 46.5902 162.59 46.4111C163.056 46.2321 163.449 45.9456 163.772 45.5875C164.094 45.2294 164.38 44.8355 164.56 44.4058C164.774 43.9403 164.846 43.439 164.846 42.9376C164.846 42.4363 164.739 41.8992 164.56 41.4695C164.38 41.0039 164.094 40.61 163.772 40.2878C163.449 39.9297 163.056 39.679 162.59 39.4642C162.124 39.2493 161.659 39.1777 161.122 39.1777C160.585 39.1777 160.083 39.2851 159.654 39.4642C159.188 39.6432 158.794 39.9297 158.472 40.2878C158.15 40.6459 157.863 41.0398 157.684 41.4695C157.505 41.935 157.398 42.4363 157.398 42.9376Z" fill="white"/>
</g>
<defs>
<clipPath id="clip0_222_21984">
<rect width="135" height="28.6472" fill="white" transform="translate(34 25.2122)"/>
</clipPath>
</defs>
</svg>
