<svg width="203" height="80" viewBox="0 0 203 80" fill="none" xmlns="http://www.w3.org/2000/svg">
<path d="M33.1917 40.567V40.5255C33.1917 36.3126 36.5167 32.8608 41.0882 32.8608C45.6598 32.8608 48.9433 36.2687 48.9433 40.4841V40.5255C48.9433 44.7385 45.6182 48.1904 41.0468 48.1904C36.4752 48.1904 33.1917 44.7824 33.1917 40.5695V40.567ZM45.5353 40.567V40.5255C45.5353 37.9836 43.6716 35.8686 41.0468 35.8686C38.4219 35.8686 36.5996 37.9447 36.5996 40.4841V40.5255C36.5996 43.0674 38.4633 45.1825 41.0882 45.1825C43.713 45.1825 45.5353 43.1065 45.5353 40.567Z" fill="white"/>
<path d="M50.7532 33.1152H57.5276C59.4109 33.1152 60.8721 33.6446 61.8479 34.6178C62.6724 35.4424 63.1189 36.6084 63.1189 38.0063V38.0477C63.1189 40.4409 61.8283 41.9435 59.9427 42.6412L63.5629 47.9348H59.7525L56.5763 43.1925H54.0148V47.9348H50.7532V33.1152ZM57.3179 40.314C58.9059 40.314 59.8158 39.4675 59.8158 38.2185V38.177C59.8158 36.7792 58.8426 36.0596 57.2544 36.0596H54.0148V40.3165H57.3179V40.314Z" fill="white"/>
<path d="M64.0431 33.0511H67.5267L70.5882 43.0577L73.9034 33.0096H76.6893L80.0046 43.0577L83.0659 33.0511H86.4641L81.4194 47.9342H78.5896L75.2548 38.2643L71.9201 47.9342H69.0904L64.0456 33.0511H64.0431Z" fill="white"/>
<path d="M101.626 33.1152H108.4C110.283 33.1152 111.745 33.6446 112.72 34.6178C113.545 35.4424 113.991 36.6084 113.991 38.0063V38.0477C113.991 40.4409 112.701 41.9435 110.815 42.6412L114.435 47.9348H110.625L107.449 43.1925H104.887V47.9348H101.626V33.1152ZM108.19 40.314C109.778 40.314 110.688 39.4675 110.688 38.2185V38.177C110.688 36.7792 109.715 36.0596 108.127 36.0596H104.887V40.3165H108.19V40.314Z" fill="white"/>
<path d="M116.728 33.1152H122.507C127.164 33.1152 130.384 36.3133 130.384 40.4823V40.5238C130.384 44.6953 127.167 47.9348 122.507 47.9348H116.728V33.1152ZM119.99 36.0571V44.9929H122.51C125.179 44.9929 126.976 43.1925 126.976 40.5677V40.5262C126.976 37.9013 125.176 36.0596 122.51 36.0596H119.99V36.0571Z" fill="white"/>
<path d="M93.8853 33.0096H90.8798L84.5275 47.9367H87.8525L89.2064 44.6117L90.3822 41.7331L92.3411 36.925L94.2999 41.7331L95.4734 44.6117L95.6563 45.0556H91.9898L90.814 47.9367H96.8297H97.0835H100.238L93.8853 33.0096Z" fill="white"/>
<path d="M32.316 36.079V33.1152H21.0311V36.079H24.2902H32.316Z" fill="white"/>
<path d="M21.0311 39.2334V47.9374H24.2902V42.1998H31.3622V39.2334H24.2902H21.0311Z" fill="white"/>
<path d="M170.568 58.5458H152.623L163.588 41.5744L147.142 16.1162H165.084L181.533 41.5744L170.568 58.5458Z" fill="white"/>
<path d="M143.651 41.5744L132.685 58.5458H150.63L161.596 41.5744L147.89 20.3585H132.685V24.6007L143.651 41.5744Z" fill="white"/>
<path d="M173.997 20.6511L172.004 23.7542L167.07 16.1162H171.065L173.997 20.6511Z" fill="white"/>
</svg>
