<svg width="203" height="80" viewBox="0 0 203 80" fill="none" xmlns="http://www.w3.org/2000/svg">
<path d="M134.216 35.5034C133.01 35.3873 131.8 35.6727 130.773 36.3152V35.4793H128.172V48.3842H130.773V41.0745C130.767 40.3499 131.025 39.648 131.5 39.1006C131.975 38.5533 132.633 38.1982 133.351 38.1023C133.76 38.0561 134.173 38.0963 134.564 38.2205C134.955 38.3446 135.316 38.5498 135.622 38.8227C135.928 39.0957 136.174 39.4302 136.343 39.8043C136.511 40.1786 136.599 40.5841 136.601 40.9946V48.3842H139.201V41.1079C139.201 38.2453 137.067 35.7691 134.216 35.5034Z" fill="white"/>
<path d="M79.4594 35.5034C78.2539 35.3873 77.0438 35.6727 76.0172 36.3152V35.4793H73.4165V48.3842H76.0172V41.0745C76.0109 40.3499 76.2693 39.648 76.7441 39.1006C77.2189 38.5533 77.8774 38.1982 78.5956 38.1023C79.0042 38.0551 79.418 38.0949 79.8102 38.2189C80.2023 38.3429 80.5639 38.5483 80.8712 38.8217C81.1784 39.0951 81.4244 39.4303 81.5932 39.8054C81.7619 40.1805 81.8495 40.587 81.8501 40.9983V48.3842H84.4508V41.1079C84.4508 38.2453 82.3127 35.7691 79.4594 35.5034Z" fill="white"/>
<path d="M91.9582 45.7646C91.223 45.7666 90.5015 45.566 89.8729 45.1848C89.2443 44.8035 88.7329 44.2564 88.395 43.6035C88.0571 42.9505 87.9057 42.2171 87.9574 41.4837C88.0091 40.7504 88.262 40.0455 88.6883 39.4464C89.1145 38.8474 89.6975 38.3775 90.3735 38.0882C91.0493 37.7989 91.7918 37.7016 92.5194 37.8069C93.2471 37.9121 93.9316 38.2158 94.4978 38.6847C95.0641 39.1536 95.4901 39.7696 95.7291 40.4647H98.4227C98.1001 38.8595 97.1924 37.4314 95.8758 36.4581C94.5592 35.4846 92.9279 35.0353 91.2985 35.1974C89.6692 35.3595 88.1583 36.1214 87.0594 37.3352C85.9604 38.5489 85.3518 40.1278 85.3518 41.7652C85.3518 43.4025 85.9604 44.9814 87.0594 46.1951C88.1583 47.4089 89.6692 48.1707 91.2985 48.3328C92.9279 48.4949 94.5592 48.0456 95.8758 47.0722C97.1924 46.0987 98.1001 44.6707 98.4227 43.0655H95.7291C95.4585 43.8511 94.95 44.533 94.2743 45.0167C93.5986 45.5003 92.7891 45.7617 91.9582 45.7646Z" fill="white"/>
<path d="M112.419 40.446C112.085 38.7693 111.12 37.2852 109.722 36.301C108.324 35.3168 106.601 34.9079 104.91 35.1589C103.219 35.41 101.689 36.3018 100.637 37.6497C99.5858 38.9975 99.0928 40.6982 99.2604 42.3995C99.4281 44.1009 100.244 45.6727 101.538 46.7893C102.833 47.9058 104.507 48.4818 106.215 48.3978C107.922 48.3139 109.532 47.5764 110.711 46.3383C111.89 45.1001 112.547 43.4559 112.547 41.7463C112.547 41.3098 112.504 40.8742 112.419 40.446ZM105.955 45.7457C105.166 45.7439 104.396 45.5086 103.741 45.0694C103.087 44.6303 102.577 44.007 102.276 43.2783C101.975 42.5496 101.897 41.748 102.051 40.9749C102.205 40.2018 102.585 39.4917 103.143 38.9342C103.7 38.3767 104.41 37.9968 105.183 37.8426C105.956 37.6883 106.758 37.7665 107.487 38.0674C108.215 38.3683 108.839 38.8782 109.278 39.533C109.717 40.1878 109.952 40.9579 109.954 41.7463C109.951 42.806 109.528 43.8213 108.779 44.5706C108.03 45.3199 107.014 45.7424 105.955 45.7457Z" fill="white"/>
<path d="M71.5953 48.3843V30.1313H68.9946V48.3843H71.5953Z" fill="white"/>
<path d="M143.62 35.4781H141.02V48.3867H143.62V35.4781Z" fill="white"/>
<path d="M143.62 30.1313H141.02V32.732H143.62V30.1313Z" fill="white"/>
<path d="M123.753 35.4791V36.7571C122.794 36.042 121.654 35.6078 120.463 35.5029C119.271 35.3981 118.073 35.6268 117.004 36.1635C115.934 36.7002 115.035 37.5236 114.407 38.5419C113.779 39.5602 113.446 40.7331 113.446 41.9296C113.446 43.1261 113.779 44.2991 114.407 45.3173C115.035 46.3357 115.934 47.1592 117.004 47.6958C118.073 48.2324 119.271 48.4612 120.463 48.3564C121.654 48.2515 122.794 47.8172 123.753 47.1022V47.2693C123.753 48.0852 123.494 48.88 123.013 49.5388C122.531 50.1976 121.853 50.6864 121.076 50.9345C120.299 51.1826 119.463 51.1772 118.689 50.9191C117.915 50.661 117.243 50.1635 116.77 49.4985L114.913 51.3561C115.755 52.3862 116.895 53.1305 118.177 53.4868C119.459 53.8431 120.82 53.7941 122.073 53.3464C123.326 52.8987 124.41 52.0744 125.176 50.9864C125.942 49.8983 126.353 48.6 126.352 47.2693V35.4791H123.753ZM120.298 45.7609C119.507 45.8423 118.71 45.6768 118.017 45.2871C117.323 44.8973 116.768 44.3025 116.426 43.5844C116.085 42.8662 115.974 42.0598 116.109 41.2761C116.244 40.4924 116.619 39.7697 117.181 39.2074C117.743 38.645 118.466 38.2706 119.25 38.1355C120.033 38.0004 120.84 38.1112 121.558 38.4528C122.276 38.7943 122.871 39.3499 123.261 40.0431C123.65 40.7364 123.816 41.5333 123.735 42.3244C123.643 43.2046 123.251 44.0264 122.626 44.6522C122 45.2779 121.178 45.6694 120.298 45.7609Z" fill="white"/>
<path d="M152.263 45.7502C151.573 45.6271 150.95 45.2635 150.504 44.724C150.058 44.1845 149.818 43.5041 149.826 42.804V38.0727H152.426V35.472H149.826V30.1313H147.225V35.472H144.528V38.0727H147.225V42.804C147.225 45.8356 149.705 48.3768 152.736 48.3862C154.078 48.3862 155.027 48.1205 155.884 47.4202C155.222 46.8305 154.711 46.0892 154.397 45.2598C153.778 45.6965 153.011 45.8726 152.263 45.7502Z" fill="white"/>
<path d="M168.871 40.446C168.537 38.7693 167.572 37.2852 166.174 36.301C164.776 35.3168 163.053 34.9079 161.362 35.1589C159.671 35.41 158.141 36.3018 157.09 37.6497C156.038 38.9975 155.545 40.6982 155.712 42.3995C155.88 44.1009 156.696 45.6727 157.99 46.7893C159.285 47.9058 160.959 48.4818 162.667 48.3978C164.375 48.3139 165.984 47.5764 167.163 46.3383C168.342 45.1001 169 43.4559 169 41.7463C169 41.3098 168.957 40.8742 168.871 40.446ZM162.4 45.7457C161.611 45.7439 160.841 45.5086 160.187 45.0694C159.531 44.6303 159.022 44.007 158.72 43.2783C158.42 42.5496 158.341 41.748 158.496 40.9749C158.65 40.2018 159.029 39.4917 159.587 38.9342C160.145 38.3767 160.854 37.9968 161.628 37.8426C162.401 37.6883 163.202 37.7665 163.931 38.0674C164.66 38.3683 165.283 38.8782 165.723 39.533C166.162 40.1878 166.397 40.9579 166.399 41.7463C166.395 42.806 165.973 43.8213 165.224 44.5706C164.474 45.3199 163.459 45.7424 162.4 45.7457Z" fill="white"/>
<path fill-rule="evenodd" clip-rule="evenodd" d="M46.4997 49.9159C52.2526 49.9159 56.9161 45.2524 56.9161 39.4996C56.9161 33.7467 52.2526 29.0831 46.4997 29.0831C40.7469 29.0831 36.0833 33.7467 36.0833 39.4996C36.0833 45.2524 40.7469 49.9159 46.4997 49.9159ZM46.4997 51.9992C53.4031 51.9992 58.9994 46.403 58.9994 39.4996C58.9994 32.5961 53.4031 26.9998 46.4997 26.9998C39.5963 26.9998 34 32.5961 34 39.4996C34 46.403 39.5963 51.9992 46.4997 51.9992Z" fill="white"/>
</svg>
