<svg width="203" height="80" viewBox="0 0 203 80" fill="none" xmlns="http://www.w3.org/2000/svg">
<g clip-path="url(#clip0_222_22025)">
<path d="M51.7451 29.6024V30.1102C51.3134 30.1057 50.8839 30.1701 50.4742 30.3008C50.1953 30.4071 49.9845 30.6328 49.905 30.9105C49.7893 31.363 49.7403 31.8289 49.7594 32.2946V44.8914C49.7417 45.3527 49.7907 45.8142 49.905 46.2627C49.9789 46.5432 50.1917 46.7711 50.4742 46.8724C50.886 46.9961 51.3137 47.0645 51.7451 47.0757V47.5835C51.2509 47.5497 50.6287 47.5284 49.8784 47.5198C49.1279 47.5118 48.3645 47.5077 47.5881 47.5075C46.7405 47.5075 45.9461 47.5116 45.2049 47.5198C44.4635 47.5286 43.8633 47.5498 43.4043 47.5835V47.0757C43.866 47.0636 44.3243 46.9953 44.768 46.8724C45.0675 46.7799 45.3003 46.5518 45.3904 46.2627C45.5146 45.8158 45.5681 45.3535 45.5493 44.8914V31.1516H45.7344L39.1677 47.609H38.7441L31.5948 31.2531V43.4185C31.5776 44.137 31.6308 44.8554 31.7537 45.5643C31.8165 46.0002 32.0722 46.389 32.4553 46.6312C32.8171 46.8429 33.3864 46.991 34.1631 47.0757V47.5835C33.8278 47.5497 33.3865 47.5284 32.8391 47.5198C32.2919 47.5118 31.78 47.5077 31.3036 47.5075C30.8974 47.5075 30.4825 47.5116 30.0589 47.5198C29.6352 47.5286 29.2823 47.5498 29 47.5835V47.0757C29.4533 47.0304 29.8889 46.8824 30.2709 46.6439C30.584 46.389 30.787 46.0313 30.8401 45.6407C30.9509 45.0073 30.9996 44.3654 30.9857 43.7233V32.2946C31.0045 31.829 30.9554 31.3631 30.8401 30.9105C30.758 30.63 30.5418 30.4037 30.2576 30.3008C29.8519 30.1723 29.4272 30.1079 29 30.1102V29.6024C29.2822 29.6195 29.6351 29.6365 30.0589 29.6533C30.4829 29.6704 30.8978 29.6789 31.3036 29.6788C32.0624 29.6788 32.8083 29.6703 33.5411 29.6533C34.2735 29.6366 34.9221 29.6196 35.4871 29.6024L41.0476 42.4786L40.3858 43.0628L45.7082 29.6788H47.5882C48.3645 29.6788 49.1279 29.6703 49.8784 29.6533C50.6286 29.6366 51.2508 29.6196 51.7451 29.6024Z" fill="white"/>
<path d="M65.013 34.341V34.8516C64.635 34.9588 64.2977 35.1673 64.0421 35.4519C63.7361 35.7669 63.4394 36.2989 63.152 37.048L59.3483 47.1623L58.3503 48.95L52.4695 36.3076C52.1635 35.6433 51.8623 35.2388 51.5658 35.0942C51.331 34.9663 51.0678 34.892 50.7974 34.8773V34.341C51.3908 34.3918 52.0067 34.4301 52.6449 34.4558C53.2832 34.4814 53.8992 34.4941 54.4929 34.4939C55.2301 34.4939 55.9044 34.4769 56.5159 34.443C57.1271 34.409 57.7026 34.375 58.2425 34.341V34.8773C57.904 34.8761 57.5659 34.8973 57.2306 34.9409C56.9667 34.9546 56.7258 35.0877 56.5835 35.2987C56.466 35.4944 56.5155 35.8307 56.7318 36.3076L60.1306 44.0719L59.888 44.2252L61.8839 38.9381C62.3873 37.559 62.4684 36.5501 62.1269 35.9114C61.785 35.2731 61.1826 34.9198 60.3196 34.8516V34.341C60.733 34.3578 61.1826 34.3747 61.6683 34.3918C62.1536 34.409 62.5762 34.4175 62.936 34.4174C63.2957 34.4174 63.6734 34.4089 64.0692 34.3918C64.4644 34.375 64.779 34.358 65.013 34.341ZM59.3483 47.1623L58.3233 49.8949C57.9813 50.7633 57.5857 51.3679 57.1364 51.7086C56.8514 51.929 56.5206 52.0899 56.1654 52.1809C55.7175 52.2979 55.2542 52.3539 54.7896 52.3469C54.3361 52.3435 53.8859 52.2745 53.4544 52.1424C53.0178 52.0191 52.6226 51.7902 52.3076 51.4785C51.9968 51.1596 51.8319 50.7372 51.849 50.3035C51.8291 49.8178 52.0483 49.3508 52.4425 49.0393C53.3406 48.4336 54.5381 48.4084 55.4638 48.9756C55.8494 49.2633 56.0611 49.712 56.0302 50.1758C56.0274 50.5247 55.9096 50.864 55.6933 51.1463C55.4413 51.4716 55.0871 51.7131 54.6814 51.8363C54.7883 51.8543 54.8967 51.8627 55.0052 51.8615H55.3019C55.8245 51.8672 56.332 51.6951 56.7318 51.3764C57.1452 51.0527 57.4869 50.5419 57.7569 49.8441L58.7011 47.2131L59.3483 47.1623Z" fill="white"/>
<path d="M75.3721 28.6547C76.5419 28.6547 77.5035 28.822 78.2569 29.1567C78.9714 29.4691 79.6451 29.8625 80.264 30.3286C80.6181 30.586 80.8883 30.616 81.0747 30.4186C81.2609 30.2216 81.3894 29.7538 81.4604 29.0151H82.0719C82.0361 29.6846 82.0095 30.4958 81.992 31.4488C81.9741 32.4016 81.9652 33.6678 81.9653 35.2473H81.3538C81.2841 34.567 81.1687 33.8918 81.0084 33.226C80.8828 32.7092 80.6861 32.2111 80.4235 31.745C80.1539 31.2928 79.792 30.8985 79.36 30.586C78.9251 30.1619 78.3986 29.8365 77.8183 29.6333C77.2302 29.4266 76.6092 29.322 75.9837 29.3242C75.107 29.2996 74.2467 29.5578 73.5379 30.0582C72.8333 30.5846 72.272 31.2698 71.9029 32.0541C71.4658 32.9582 71.1573 33.9155 70.9856 34.8999C70.7879 35.9838 70.69 37.0827 70.6931 38.1835C70.6892 39.2933 70.7916 40.401 70.9989 41.4925C71.1762 42.4723 71.4985 43.4222 71.9558 44.3128C72.3473 45.0876 72.9266 45.7591 73.6442 46.27C74.3586 46.7579 75.216 47.0107 76.0899 46.9911C76.6944 46.9877 77.2933 46.8786 77.8579 46.6691C78.4318 46.4669 78.9534 46.1462 79.3867 45.7292C80.0525 45.2486 80.5453 44.5774 80.7956 43.8104C81.0877 42.8141 81.2748 41.7917 81.3538 40.7588H81.9653C81.9653 42.3899 81.9742 43.7076 81.992 44.7119C82.0095 45.7163 82.0361 46.5619 82.0719 47.2486H81.4604C81.3892 46.5105 81.2695 46.0469 81.1013 45.858C80.9326 45.6691 80.6535 45.6948 80.264 45.9351C79.6046 46.3834 78.9063 46.7755 78.177 47.1069C77.4413 47.4418 76.4975 47.6092 75.3455 47.6089C73.4667 47.6089 71.8229 47.2398 70.414 46.5016C69.0174 45.7755 67.8746 44.6642 67.1306 43.3084C66.3507 41.9174 65.9608 40.2434 65.9608 38.2864C65.9608 36.3639 66.3641 34.6813 67.1705 33.2385C67.9357 31.8385 69.0858 30.6709 70.4936 29.8649C71.9029 29.0582 73.529 28.6547 75.3721 28.6547Z" fill="white"/>
<path d="M91.0752 33.395C92.1859 33.3698 93.2872 33.6108 94.2935 34.0992C95.2347 34.5889 95.9945 35.3862 96.4557 36.3681C96.9749 37.4114 97.2348 38.7938 97.2353 40.5152C97.2353 42.2365 96.9754 43.6144 96.4557 44.6489C95.9918 45.6256 95.2324 46.4179 94.2935 46.9048C92.2566 47.8437 89.9316 47.8437 87.8946 46.9048C86.9485 46.4195 86.1806 45.6275 85.7073 44.6489C85.179 43.6146 84.915 42.2367 84.915 40.5152C84.915 38.7939 85.1791 37.4116 85.7073 36.3681C86.1779 35.3843 86.9462 34.5874 87.8946 34.0992C88.8889 33.6151 89.977 33.3742 91.0752 33.395ZM91.0752 33.9165C90.4046 33.9165 89.8431 34.4339 89.3905 35.4686C88.9379 36.5033 88.7116 38.1855 88.7117 40.5152C88.7117 42.8454 88.938 44.5233 89.3905 45.5488C89.8432 46.5749 90.4048 47.0878 91.0752 47.0874C91.7623 47.0874 92.328 46.5746 92.7724 45.5488C93.2164 44.523 93.4385 42.8452 93.4386 40.5152C93.4386 38.1854 93.2165 36.5032 92.7724 35.4686C92.328 34.4343 91.7623 33.9169 91.0752 33.9165Z" fill="white"/>
<path d="M107.959 33.396C108.571 33.3755 109.181 33.4707 109.759 33.677C110.18 33.8337 110.555 34.0961 110.85 34.4399C111.151 34.8233 111.362 35.2719 111.467 35.7514C111.616 36.4637 111.682 37.1913 111.665 37.9193V45.1197C111.665 45.8692 111.792 46.3778 112.046 46.6455C112.299 46.9131 112.733 47.0469 113.346 47.0469V47.6089C113.014 47.5913 112.514 47.5689 111.849 47.5418C111.182 47.5154 110.525 47.5021 109.877 47.502C109.212 47.502 108.559 47.5153 107.92 47.5418C107.28 47.5687 106.794 47.591 106.461 47.6089V47.0469C106.987 47.0469 107.355 46.9131 107.565 46.6455C107.775 46.3776 107.88 45.869 107.88 45.1197V36.7953C107.886 36.403 107.842 36.0116 107.749 35.631C107.677 35.3272 107.511 35.0551 107.276 34.8547C107.048 34.6672 106.706 34.5735 106.251 34.5737C105.533 34.5649 104.851 34.8901 104.398 35.457C103.888 36.0778 103.621 36.8692 103.649 37.6786V45.1197C103.649 45.8692 103.759 46.3778 103.978 46.6455C104.196 46.9131 104.56 47.0469 105.068 47.0469V47.6089C104.753 47.5913 104.293 47.5689 103.689 47.5418C103.084 47.5154 102.458 47.5021 101.81 47.502C101.143 47.502 100.46 47.5153 99.7597 47.5418C99.0589 47.5687 98.5333 47.591 98.183 47.6089V47.0469C98.7958 47.0469 99.2294 46.9131 99.4838 46.6455C99.7375 46.3776 99.8645 45.869 99.8648 45.1197V36.6883C99.8648 35.8852 99.7466 35.2919 99.5102 34.9084C99.2734 34.5246 98.831 34.3328 98.183 34.3329V33.7709C98.7434 33.8242 99.2865 33.8509 99.8121 33.851C100.548 33.851 101.236 33.8199 101.875 33.7575C102.472 33.7019 103.064 33.6081 103.649 33.4765V35.8852C104.087 34.9751 104.683 34.3327 105.436 33.958C106.224 33.5756 107.087 33.3833 107.959 33.396Z" fill="white"/>
<path d="M120.59 33.3943C121.213 33.3823 121.834 33.4748 122.428 33.6681C122.829 33.7909 123.212 33.9708 123.566 34.2026C124.132 34.6031 124.482 34.3424 124.616 33.4204H125.141C125.107 33.9075 125.082 34.503 125.066 35.2068C125.049 35.9113 125.041 36.8459 125.041 38.0107H124.516C124.43 37.3587 124.271 36.7195 124.041 36.1066C123.83 35.5148 123.482 34.9863 123.028 34.568C122.548 34.1541 121.938 33.9404 121.316 33.9681C120.871 33.9542 120.436 34.1068 120.09 34.3984C119.747 34.7074 119.562 35.1657 119.59 35.6375C119.582 36.1347 119.741 36.6191 120.04 37.0065C120.377 37.4336 120.768 37.8109 121.203 38.1279C121.678 38.4847 122.174 38.8629 122.691 39.2624C123.452 39.8392 124.159 40.4899 124.803 41.2056C125.379 41.8575 125.666 42.7051 125.666 43.7484C125.68 44.4883 125.45 45.2107 125.016 45.7959C124.567 46.3911 123.976 46.854 123.303 47.1392C122.554 47.4603 121.75 47.6199 120.94 47.6084C120.49 47.6144 120.041 47.5619 119.603 47.4522C119.251 47.3636 118.911 47.2322 118.59 47.0607C118.373 46.9565 118.169 46.8565 117.977 46.7608C117.785 46.6655 117.606 46.5829 117.44 46.5131C117.271 46.4613 117.09 46.5368 117.002 46.6958C116.858 46.9155 116.76 47.1643 116.715 47.4261H116.19C116.223 46.8698 116.247 46.1917 116.264 45.3917C116.281 44.5919 116.289 43.5313 116.289 42.2098H116.815C116.895 43.0612 117.08 43.8983 117.365 44.7006C117.585 45.3518 117.959 45.9347 118.452 46.3958C118.94 46.8152 119.559 47.0334 120.19 47.0088C120.625 47.0083 121.047 46.8569 121.39 46.5785C121.757 46.2916 121.94 45.8177 121.94 45.1567C121.961 44.4474 121.704 43.7599 121.228 43.2531C120.659 42.6637 120.054 42.1147 119.415 41.6098C118.881 41.1578 118.377 40.7101 117.902 40.2665C117.445 39.8453 117.053 39.3527 116.74 38.8063C116.435 38.2559 116.279 37.6292 116.289 36.9935C116.268 36.2809 116.48 35.5819 116.89 35.0114C117.302 34.4628 117.851 34.0432 118.477 33.7984C119.151 33.5261 119.868 33.389 120.59 33.3943Z" fill="white"/>
<path d="M131.719 29.6024V33.8515H134.852V34.3696H131.719V44.8363C131.719 45.3543 131.817 45.7213 132.011 45.9373C132.239 46.1668 132.56 46.2855 132.887 46.2612C133.236 46.2505 133.572 46.1275 133.843 45.9113C134.161 45.6783 134.445 45.2768 134.692 44.7068L135.144 44.9398C134.888 45.6753 134.445 46.3352 133.856 46.8572C133.281 47.3577 132.498 47.6081 131.507 47.6082C130.985 47.6173 130.465 47.543 129.967 47.3882C128.997 47.0866 128.274 46.2912 128.082 45.3154C127.944 44.5939 127.882 43.8604 127.897 43.1264V34.3696H125.667V33.8515H127.897V30.4314C128.587 30.4365 129.277 30.3714 129.954 30.2373C130.571 30.1118 131.166 29.8978 131.719 29.6024Z" fill="white"/>
<path d="M139.327 47.6077C138.19 47.6077 137.367 47.2994 136.858 46.6829C136.346 46.0574 136.074 45.2577 136.095 44.437C136.066 43.7816 136.24 43.1338 136.591 42.5878C136.931 42.1033 137.37 41.702 137.876 41.4121C138.407 41.1018 138.965 40.8452 139.543 40.6458C140.128 40.4438 140.688 40.2413 141.222 40.0385C141.687 39.8744 142.124 39.6383 142.52 39.3381C142.835 39.1083 143.02 38.7331 143.017 38.3342V36.2734C143.023 35.8532 142.95 35.4357 142.8 35.0451C142.67 34.702 142.438 34.4105 142.139 34.2127C141.787 34.0046 141.385 33.9038 140.981 33.922C140.637 33.9229 140.294 33.9718 139.963 34.0674C139.646 34.1512 139.357 34.3198 139.123 34.5562C139.561 34.7052 139.946 34.9858 140.23 35.3622C140.49 35.7144 140.629 36.1468 140.625 36.5905C140.647 37.1362 140.426 37.6623 140.026 38.0171C139.634 38.3673 139.131 38.5554 138.614 38.5457C138.003 38.5457 137.541 38.3476 137.227 37.9513C136.91 37.5451 136.742 37.0344 136.756 36.5114C136.739 36.0577 136.869 35.6112 137.125 35.243C137.415 34.8681 137.763 34.5466 138.156 34.2921C138.694 33.9857 139.273 33.7631 139.874 33.6314C140.588 33.4682 141.318 33.3885 142.049 33.3938C142.761 33.3856 143.47 33.4699 144.162 33.6447C144.758 33.7939 145.303 34.1091 145.74 34.5562C146.131 34.9642 146.397 35.4838 146.503 36.049C146.634 36.7852 146.694 37.5331 146.681 38.2816V45.4674C146.662 45.7729 146.706 46.079 146.809 46.3658C146.887 46.538 147.059 46.6429 147.241 46.6299C147.411 46.6301 147.577 46.5846 147.725 46.4978C147.879 46.4085 148.024 46.3023 148.157 46.1811L148.412 46.6299C148.049 46.9513 147.63 47.1979 147.178 47.3564C146.673 47.53 146.144 47.6149 145.612 47.6077C144.594 47.6077 143.92 47.3919 143.589 46.9602C143.261 46.5363 143.077 46.0113 143.067 45.4674C142.693 46.1394 142.153 46.6957 141.502 47.079C140.832 47.4441 140.083 47.6261 139.327 47.6077ZM141.286 45.9166C141.602 45.9183 141.913 45.8366 142.189 45.679C142.524 45.4663 142.807 45.1772 143.017 44.8336V39.4176C142.804 39.7787 142.512 40.0821 142.164 40.3026C141.799 40.5403 141.426 40.7957 141.044 41.0689C140.66 41.3445 140.335 41.6997 140.09 42.1122C139.835 42.5348 139.708 43.0985 139.708 43.8032C139.708 44.5608 139.861 45.1024 140.166 45.4281C140.457 45.7473 140.863 45.9247 141.286 45.9166V45.9166Z" fill="white"/>
<path d="M159.135 33.396C159.747 33.3755 160.358 33.4707 160.936 33.677C161.357 33.8337 161.732 34.0961 162.026 34.4399C162.328 34.8233 162.539 35.2719 162.644 35.7514C162.793 36.4637 162.859 37.1913 162.841 37.9193V45.1197C162.841 45.8692 162.968 46.3778 163.222 46.6455C163.476 46.9131 163.909 47.0469 164.523 47.0469V47.6089C164.19 47.5913 163.691 47.5689 163.025 47.5418C162.359 47.5154 161.702 47.5021 161.054 47.502C160.388 47.502 159.736 47.5153 159.096 47.5418C158.456 47.5687 157.97 47.591 157.638 47.6089V47.0469C158.163 47.0469 158.531 46.9131 158.741 46.6455C158.952 46.3776 159.057 45.869 159.057 45.1197V36.7953C159.063 36.403 159.019 36.0116 158.925 35.631C158.854 35.3272 158.688 35.0551 158.452 34.8547C158.225 34.6672 157.883 34.5735 157.427 34.5737C156.71 34.5649 156.028 34.8901 155.575 35.457C155.064 36.0778 154.797 36.8692 154.826 37.6786V45.1197C154.826 45.8692 154.935 46.3778 155.154 46.6455C155.373 46.9131 155.736 47.0469 156.245 47.0469V47.6089C155.929 47.5913 155.469 47.5689 154.865 47.5418C154.261 47.5154 153.634 47.5021 152.986 47.502C152.32 47.502 151.637 47.5153 150.936 47.5418C150.235 47.5687 149.71 47.591 149.359 47.6089V47.0469C149.972 47.0469 150.406 46.9131 150.66 46.6455C150.914 46.3776 151.041 45.869 151.041 45.1197V36.6883C151.041 35.8852 150.923 35.2919 150.687 34.9084C150.45 34.5246 150.008 34.3328 149.359 34.3329V33.7709C149.92 33.8242 150.463 33.8509 150.989 33.851C151.724 33.851 152.412 33.8199 153.052 33.7575C153.648 33.7019 154.241 33.6081 154.826 33.4765V35.8852C155.263 34.9751 155.859 34.3327 156.613 33.958C157.4 33.5756 158.263 33.3833 159.135 33.396Z" fill="white"/>
<path d="M170.575 29.6024V33.8515H173.708V34.3696H170.575V44.8363C170.575 45.3543 170.673 45.7213 170.867 45.9373C171.096 46.1668 171.417 46.2855 171.743 46.2612C172.093 46.2505 172.429 46.1275 172.699 45.9113C173.017 45.6783 173.301 45.2768 173.549 44.7068L174 44.9398C173.745 45.6753 173.301 46.3352 172.712 46.8572C172.137 47.3577 171.354 47.6081 170.363 47.6082C169.841 47.6173 169.321 47.543 168.823 47.3882C167.853 47.0866 167.13 46.2912 166.939 45.3154C166.8 44.5939 166.738 43.8604 166.753 43.1264V34.3696H164.523V33.8515H166.753V30.4314C167.444 30.4365 168.133 30.3714 168.81 30.2373C169.427 30.1118 170.022 29.8978 170.575 29.6024Z" fill="white"/>
</g>
<defs>
<clipPath id="clip0_222_22025">
<rect width="145" height="23.6928" fill="white" transform="translate(29 28.6536)"/>
</clipPath>
</defs>
</svg>
