<svg width="203" height="80" viewBox="0 0 203 80" fill="none" xmlns="http://www.w3.org/2000/svg">
<path fill-rule="evenodd" clip-rule="evenodd" d="M98.0593 45.6686V43.9244H95.0135C92.9325 43.9244 92.2785 44.7802 92.2785 45.9207C92.2785 47.1589 93.2189 47.9806 94.7841 47.9806C96.2663 47.9806 97.55 47.2207 98.0593 45.6686M102.503 41.3276V51.0524H98.3392V48.9373C97.5159 50.4894 95.9181 51.3127 93.6712 51.3127C90.082 51.3127 87.9457 49.0951 87.9457 46.1469C87.9457 43.1385 89.8526 41.0461 94.5254 41.0461H98.0561C98.0561 38.931 96.9171 37.6896 94.5254 37.6896C92.8984 37.6896 91.2209 38.29 90.1096 39.2727L88.5151 35.8201C90.204 34.4827 92.6771 33.7538 95.1274 33.7538C99.7986 33.7538 102.503 36.1634 102.503 41.3276M115.433 50.2389C114.52 50.9678 113.183 51.316 111.816 51.316C108.197 51.316 106.09 49.2562 106.09 45.2016V38.1988H103.728V34.3867H106.09V32.5042L110.542 30.2378V34.3867H114.349V38.1988H110.542V45.13C110.542 46.5943 111.253 47.3786 112.447 47.3786C113.1 47.3829 113.733 47.1584 114.237 46.744L115.433 50.2389ZM126.082 45.6832V43.9244H123.036C120.955 43.9244 120.299 44.7802 120.299 45.9207C120.299 47.1589 121.24 47.9806 122.807 47.9806C124.289 47.9806 125.572 47.2207 126.082 45.6686M130.525 41.3276V51.0524H126.365V48.9373C125.542 50.4895 123.944 51.3127 121.697 51.3127C118.108 51.3127 115.971 49.0951 115.971 46.1469C115.971 43.1385 117.88 41.0462 122.551 41.0462H126.082C126.082 38.931 124.943 37.6896 122.551 37.6896C120.924 37.6896 119.247 38.29 118.135 39.2727L116.542 35.8201C118.222 34.4876 120.698 33.7587 123.148 33.7587C127.819 33.7587 130.525 36.1683 130.525 41.3325M148.351 41.3V51.0622H143.908V42.0565C143.908 39.3003 142.769 38.0313 140.803 38.0313C138.668 38.0313 137.131 39.4956 137.131 42.626V51.0524H132.686V34.0092H136.931V36.004C138.127 34.5396 139.921 33.7554 142.001 33.7554C145.618 33.7554 148.346 36.1 148.346 41.2951" fill="white"/>
<path fill-rule="evenodd" clip-rule="evenodd" d="M162.545 41.9931C162.545 39.4891 160.868 37.81 158.531 37.81C156.195 37.81 154.486 39.4891 154.486 41.9931C154.486 44.4971 156.195 46.1713 158.539 46.1713C160.884 46.1713 162.545 44.4971 162.545 41.9931ZM166.938 34.0092V48.2019C166.938 54.5473 163.863 57.4548 158.338 57.4548C155.432 57.4548 152.614 56.6624 150.819 55.1102L152.584 51.5601C153.896 52.7331 156.032 53.4946 157.996 53.4946C161.13 53.4946 162.496 51.9099 162.496 48.8364V48.1075C161.328 49.5328 159.647 50.2226 157.654 50.2226C153.411 50.2226 149.993 46.9604 149.993 41.9866C149.993 37.0127 153.409 33.7473 157.654 33.7473C159.789 33.7473 161.559 34.5396 162.722 36.1878V34.0092H166.938Z" fill="white"/>
<path fill-rule="evenodd" clip-rule="evenodd" d="M70.4941 48.7257L72.061 44.8599C73.9418 46.3283 76.2515 47.1408 78.6374 47.1735C81.3725 47.1735 82.4837 46.1599 82.4837 44.7965C82.4837 40.6459 70.8911 43.4948 70.8911 35.2604C70.8911 31.4889 73.6246 28.352 79.2948 28.352C81.8004 28.352 84.3646 29.0175 86.2145 30.3159L84.7909 34.2207C82.9393 33.0493 81.0308 32.4782 79.259 32.4782C76.5223 32.4782 75.468 33.6171 75.468 35.0131C75.468 39.1002 87.0606 36.2806 87.0606 44.4239C87.0606 48.1286 84.2946 51.2981 78.6 51.2981C75.4403 51.2981 72.2546 50.2535 70.4844 48.7322" fill="white"/>
<path d="M57.8406 39.7722L53.215 35.1416V35.1416L48.4966 30.4135C45.8904 27.8013 45.8904 23.5726 48.4966 20.9604V20.9604L39.0598 30.4151C36.4514 33.0276 36.4514 37.2589 39.0598 39.8714L43.6708 44.5003V44.5003L48.3892 49.2187C50.9973 51.8307 50.9973 56.0615 48.3892 58.6734V58.6734L57.826 49.2171C60.4341 46.6052 60.4341 42.3744 57.826 39.7624L57.8406 39.7722Z" fill="white"/>
<path opacity="0.7" d="M48.4949 30.4135L53.2133 35.1417V35.1417L57.9317 30.4233C59.6236 28.7375 60.2876 26.2773 59.6736 23.9693C59.0596 21.6612 57.261 19.8561 54.9552 19.2338C52.6494 18.6115 50.1868 19.2666 48.4949 20.9523V20.9523C45.8834 23.5654 45.8834 27.8004 48.4949 30.4135V30.4135Z" fill="white"/>
<path opacity="0.7" d="M48.3973 49.2285L43.6789 44.5101V44.5101L38.9524 49.2285C36.4614 51.8542 36.5136 55.9859 39.0702 58.5477C41.6268 61.1096 45.7584 61.1704 48.3892 58.6848V58.6848C51.0007 56.0749 51.0043 51.8429 48.3973 49.2285V49.2285Z" fill="white"/>
</svg>
