<svg width="203" height="80" viewBox="0 0 203 80" fill="none" xmlns="http://www.w3.org/2000/svg">
<path d="M80.6809 29.9684H64.4138V33.817H70.3656V50.8051H74.7291V33.817H80.6809V29.9684V29.9684Z" fill="white"/>
<path d="M84.0417 46.0458H83.9875L80.7352 35.7197H76.5397L81.57 49.8728C81.6814 50.1709 81.7383 50.4867 81.738 50.8051C81.7379 51.2424 81.6057 51.6694 81.3586 52.0301C81.0966 52.4145 80.6733 52.658 80.2094 52.6914C79.8188 52.7077 79.4276 52.6968 79.0386 52.6589L77.8786 52.5288V55.9438L79.0873 56.0468C79.483 56.0468 79.8896 56.0901 80.2961 56.0901C81.4088 56.1526 82.5143 55.8767 83.4671 55.2987C84.328 54.6422 84.9582 53.7292 85.2668 52.6914L91.2728 35.7359H87.1857L84.0417 46.0458Z" fill="white"/>
<path d="M112.651 36.5328C112.174 36.0979 111.603 35.7789 110.982 35.6004C110.295 35.4002 109.583 35.3016 108.868 35.3077C107.945 35.2848 107.037 35.55 106.271 36.0666C105.579 36.5264 104.987 37.1221 104.531 37.8174C104.214 36.9858 103.602 36.2994 102.813 35.8877C102.037 35.5178 101.185 35.3323 100.325 35.3457C99.4438 35.3295 98.5747 35.5524 97.8099 35.9907C97.0526 36.4399 96.409 37.0575 95.929 37.7957H95.8748V35.7197H92.1509V50.8051H96.097V42.0509C96.0748 41.4384 96.1781 40.8278 96.4006 40.2567C96.5645 39.8554 96.8164 39.496 97.1378 39.2051C97.3965 38.9793 97.6992 38.8095 98.0268 38.7064C98.2658 38.6312 98.5136 38.5875 98.764 38.5763C99.2637 38.544 99.7618 38.661 100.195 38.9124C100.515 39.1286 100.759 39.4394 100.894 39.8014C101.036 40.1913 101.114 40.6011 101.127 41.0156C101.127 41.4546 101.154 41.8937 101.154 42.3436V50.8051H105.106V42.3924C105.106 41.9299 105.138 41.468 105.204 41.0101C105.257 40.5819 105.387 40.1668 105.588 39.7851C105.779 39.4284 106.057 39.1262 106.396 38.907C106.804 38.6663 107.273 38.5495 107.746 38.5709C108.203 38.5478 108.658 38.6489 109.063 38.8636C109.389 39.0545 109.65 39.3399 109.811 39.6821C109.989 40.0487 110.094 40.4463 110.12 40.8529C110.158 41.2974 110.174 41.7744 110.174 42.284V50.8051H114.12V40.7066C114.14 39.8593 114.009 39.0152 113.736 38.2131C113.51 37.5762 113.139 37.0008 112.651 36.5328Z" fill="white"/>
<path fill-rule="evenodd" clip-rule="evenodd" d="M125.964 36.0557C126.856 36.5388 127.623 37.2237 128.203 38.0559C128.793 38.9167 129.218 39.8799 129.455 40.8963C129.717 41.9943 129.812 43.1254 129.737 44.2516H119.368C119.422 45.5923 119.745 46.5644 120.338 47.1679C121.648 48.2617 123.517 48.3759 124.951 47.4497C125.442 47.1386 125.815 46.6707 126.008 46.1217H129.482C128.929 47.9286 128.077 49.2223 126.924 50.0028C125.685 50.8059 124.231 51.2124 122.755 51.1682C121.71 51.1922 120.671 51.0079 119.698 50.6262C118.817 50.2652 118.03 49.7092 117.394 49C116.744 48.2695 116.246 47.4162 115.931 46.4903C115.579 45.4576 115.404 44.3724 115.416 43.2813C115.411 42.2062 115.595 41.1385 115.958 40.1266C116.286 39.1951 116.797 38.3382 117.459 37.606C118.11 36.8929 118.899 36.321 119.779 35.9256C120.72 35.5099 121.738 35.301 122.766 35.3131C123.878 35.2876 124.978 35.5431 125.964 36.0557ZM119.557 40.6524C119.463 40.9759 119.403 41.3083 119.378 41.6443H125.829C125.719 40.7739 125.378 39.9486 124.842 39.2539C124.279 38.6702 123.483 38.3698 122.674 38.4354C122.131 38.417 121.591 38.5324 121.102 38.7714C120.712 38.9744 120.37 39.2591 120.099 39.6062C119.854 39.9173 119.67 40.2724 119.557 40.6524Z" fill="white"/>
<path fill-rule="evenodd" clip-rule="evenodd" d="M142.866 39.8013V39.7417C143.371 39.6325 143.85 39.4244 144.275 39.1292C144.695 38.8316 145.062 38.4651 145.359 38.0451C145.671 37.6192 145.911 37.1449 146.069 36.6412C146.236 36.1284 146.32 35.5922 146.319 35.0529C146.343 34.2075 146.156 33.3693 145.777 32.6137C145.444 31.9831 144.962 31.4435 144.373 31.0417C143.768 30.6417 143.093 30.3602 142.383 30.2124C141.592 30.0475 140.785 29.9658 139.977 29.9684H131.542V50.8051H139.939C140.869 50.8205 141.798 50.7185 142.703 50.5015C143.386 50.3309 144.041 50.0644 144.649 49.7101C145.141 49.4231 145.572 49.0418 145.917 48.5881C146.215 48.1887 146.458 47.7512 146.638 47.2871C146.799 46.8733 146.912 46.4422 146.974 46.0025C147.025 45.6306 147.053 45.2558 147.056 44.8804C147.096 43.6394 146.693 42.4246 145.917 41.4546C145.152 40.5295 144.058 39.9369 142.866 39.8013ZM133.445 31.6705H139.949C142.931 31.6705 144.423 32.9732 144.427 35.5787C144.428 36.0521 144.332 36.5208 144.145 36.9555C143.955 37.3801 143.671 37.7562 143.316 38.0559C142.905 38.3976 142.432 38.6554 141.923 38.8148C141.284 39.011 140.618 39.1043 139.949 39.0913H133.445V31.6705ZM143.619 48.2466C144.108 47.9106 144.5 47.4528 144.758 46.9186V46.9077C145.059 46.2546 145.202 45.5396 145.175 44.8208C145.254 43.6528 144.748 42.5218 143.825 41.8015C142.931 41.1294 141.635 40.7933 139.949 40.7933H133.445V49.1247H139.949C140.621 49.127 141.291 49.0635 141.95 48.935C142.547 48.8217 143.115 48.5875 143.619 48.2466Z" fill="white"/>
<path fill-rule="evenodd" clip-rule="evenodd" d="M159.577 40.1537V48.149C159.577 48.8971 159.919 49.2602 160.656 49.2602C160.843 49.2614 161.028 49.2206 161.198 49.141V50.7129C161.155 50.7219 161.114 50.7311 161.074 50.74C160.919 50.7744 160.781 50.8051 160.656 50.8051C160.458 50.8242 160.259 50.8332 160.06 50.8322C159.689 50.8473 159.319 50.7826 158.976 50.6425C158.719 50.5265 158.503 50.338 158.352 50.1004C158.195 49.847 158.095 49.562 158.059 49.2657C158.008 48.9066 157.985 48.5442 157.989 48.1815H157.935C157.643 48.6338 157.323 49.0665 156.975 49.4771C156.662 49.8443 156.297 50.1639 155.891 50.4257C155.471 50.6897 155.012 50.8871 154.531 51.0111C153.935 51.1557 153.323 51.2231 152.709 51.2116C152.076 51.2162 151.445 51.1342 150.834 50.9677C150.274 50.8148 149.753 50.5451 149.305 50.1763C148.858 49.8074 148.505 49.3373 148.275 48.8049C148.011 48.1834 147.881 47.5126 147.896 46.8372C147.846 45.9639 148.082 45.0982 148.568 44.3709C149.022 43.7679 149.631 43.2995 150.33 43.0157C151.123 42.6865 151.956 42.4641 152.807 42.3544C153.723 42.2298 154.655 42.1105 155.599 41.9913C155.926 41.9595 156.252 41.9107 156.574 41.8449C156.826 41.7986 157.063 41.6947 157.268 41.5414C157.461 41.3817 157.609 41.1742 157.696 40.9397C157.812 40.6221 157.865 40.2854 157.853 39.9477C157.873 39.4226 157.773 38.8998 157.561 38.4191C157.367 38.031 157.071 37.7031 156.704 37.4705C156.344 37.2264 155.935 37.0619 155.506 36.9881C155.026 36.8986 154.537 36.8551 154.048 36.858C153.076 36.8148 152.119 37.1077 151.338 37.6873C150.633 38.2366 150.261 39.1274 150.221 40.3597H148.47C148.51 39.5739 148.693 38.8021 149.013 38.083C149.284 37.4682 149.698 36.9274 150.221 36.5057C150.751 36.0846 151.362 35.7766 152.016 35.6004C152.757 35.3976 153.523 35.2991 154.292 35.3077C154.927 35.3092 155.561 35.3728 156.184 35.4974C156.793 35.6143 157.372 35.8581 157.881 36.2129C158.405 36.5939 158.824 37.101 159.1 37.6873C159.448 38.4614 159.612 39.3057 159.577 40.1537ZM157.42 46.9511C157.7 46.3278 157.839 45.6503 157.826 44.9671L157.87 42.5767H157.81C157.669 42.8127 157.438 42.9811 157.171 43.0428C156.897 43.1289 156.618 43.1977 156.336 43.2488C155.599 43.3843 154.834 43.5036 154.043 43.612C153.307 43.7047 152.581 43.8662 151.875 44.0944C151.27 44.2722 150.714 44.5855 150.248 45.0105C149.81 45.467 149.584 46.0866 149.625 46.718C149.617 47.1461 149.706 47.5706 149.885 47.9593C150.057 48.3146 150.298 48.6317 150.595 48.8916C150.895 49.1588 151.245 49.3634 151.625 49.4933C152.008 49.6287 152.412 49.6983 152.818 49.6993C153.471 49.7015 154.12 49.5915 154.737 49.3741C155.327 49.1734 155.87 48.8564 156.336 48.4417C156.796 48.025 157.165 47.5174 157.42 46.9511Z" fill="white"/>
<path d="M173.031 36.8688C172.596 36.3538 172.036 35.9583 171.405 35.7197C170.601 35.422 169.747 35.2822 168.89 35.3077C167.892 35.3009 166.916 35.5895 166.082 36.1371C165.259 36.6526 164.633 37.4295 164.304 38.3432H164.244V35.7468H162.494V50.8051H164.244V42.0238C164.258 41.3239 164.375 40.6298 164.591 39.964C164.787 39.3715 165.09 38.8202 165.486 38.3378C165.865 37.8806 166.338 37.5108 166.873 37.2537C167.462 36.9854 168.102 36.8521 168.749 36.8634C169.357 36.8425 169.961 36.9612 170.516 37.2103C170.973 37.4248 171.366 37.7557 171.654 38.1698C171.943 38.6061 172.141 39.0967 172.234 39.6116C172.35 40.2025 172.407 40.8036 172.402 41.4058V50.8051H174.153V41.1186C174.163 40.304 174.079 39.4911 173.904 38.6956C173.758 38.0275 173.459 37.4023 173.031 36.8688V36.8688Z" fill="white"/>
<path d="M182.094 41.3191L188.209 35.7468H185.878L177.926 43.0428V29.9684H176.175V50.8051H177.926V45.0864L180.761 42.6038L186.431 50.8051H188.626L182.094 41.3191V41.3191Z" fill="white"/>
<path d="M43.5729 17.9998L15 23.8912V28.6356L41.1499 24.1076L56.1963 29.7014V26.2174L43.5729 17.9998Z" fill="white"/>
<path d="M15 30.4155V35.3493L37.5317 33.4558L56.1963 35.5008V31.135L40.2359 26.5583L15 30.4155Z" fill="white"/>
<path d="M15 36.9722V42.025L33.3076 43.3072L56.1963 42.1765V37.0209L36.4824 35.7658L15 36.9722Z" fill="white"/>
<path d="M15 47.7378L29.6678 52.4714L56.1963 48.7332V43.7399L32.28 45.5739L15 43.5452V47.7378Z" fill="white"/>
<path d="M15 52.5311L26.3091 60.938L56.1963 55.3658V50.5619L28.6888 54.9222L15 49.2527V52.5311Z" fill="white"/>
</svg>
